<svg id="SvgjsSvg1001" width="288" height="288" xmlns="http://www.w3.org/2000/svg" version="1.1" xmlns:xlink="http://www.w3.org/1999/xlink" xmlns:svgjs="http://svgjs.com/svgjs"><defs id="SvgjsDefs1002"></defs><g id="SvgjsG1008"><svg xmlns="http://www.w3.org/2000/svg" xmlns:svgjs="http://svgjs.com/svgjs" xmlns:xlink="http://www.w3.org/1999/xlink" width="288" height="288"><svg xmlns="http://www.w3.org/2000/svg" width="288" height="288" enable-background="new 0 0 204.701 204.701" viewBox="0 0 204.701 204.701"><switch><g fill="#753a3a" class="color000 svgShape color122d57"><path d="M129.977,41.62c-14.947-9.242-30.84-9.961-35.355-9.961c-0.559,0-0.921,0.012-1.061,0.017H70.661				c-10.156,0-18.419,8.263-18.419,18.42v106.517c0,10.156,8.264,18.419,18.429,18.42l22.89-0.008
				c0.14,0.005,0.503,0.017,1.062,0.017c4.515,0,20.407-0.719,35.353-9.959c19.35-11.964,29.16-32.733,29.16-61.731
				C159.135,74.354,149.324,53.585,129.977,41.62z M127.345,160.829c-13.823,8.548-28.541,9.212-32.723,9.212
				c-0.555,0-0.867-0.013-0.896-0.014l-8.663-0.003l-14.4,0.008c-7.4,0-13.421-6.021-13.421-13.42V50.096
				c0-7.399,6.02-13.42,13.419-13.42h22.95l0.113-0.003c0.03-0.001,0.342-0.014,0.896-0.014c4.182,0,18.9,0.665,32.726,9.214
				c17.775,10.992,26.788,30.33,26.788,57.478C154.135,130.499,145.121,149.838,127.345,160.829z" class="color000 svgShape" fill="#ffffff"></path><path d="M130.693,59.151C115.421,44.57,94.955,45.084,93.425,45.146H74.882c-6.046,0-10.965,4.302-10.965,9.589v10.854
				c0,2.002,0.788,3.874,2.22,5.271c1.424,1.39,3.333,2.135,5.29,2.08c21.258-0.51,31.248,8.9,35.327,14.563
				c0.062,0.086,0.118,0.179,0.169,0.268c1.286,2.292,5.481,9.14,10.702,11.327c0.216,2.344,1.015,6.519,3.92,9.514
				c1.597,1.646,3.575,2.696,5.895,3.158c-0.444,2.553-1.482,5.905-3.917,8.438c-2.468,2.565-6.006,3.866-10.516,3.866H87.57
				c0.259-1.343,0.391-2.765,0.391-4.26V103.38c0-0.01,0.003-0.02,0.003-0.029c0-1.379-1.116-2.497-2.493-2.497
				s-2.494,1.118-2.494,2.497h-0.016v16.463c0,9.772-6.93,12.843-12.743,13.697c-3.651,0.537-6.301,3.597-6.301,7.275v11.164
				c0,5.287,4.919,9.589,10.965,9.589h18.543c0.15,0.006,0.483,0.017,0.977,0.017c4.526,0,22.521-0.873,36.292-14.021
				c10.632-10.149,16.022-25.018,16.022-44.191S141.325,69.301,130.693,59.151z M122.824,100.207
				c3.104,0.768,4.663,2.375,4.904,6.486c-1.008-0.309-1.866-0.817-2.58-1.548C123.78,103.745,123.133,101.793,122.824,100.207z
				 M127.281,143.88c-13.958,13.361-33.5,12.672-33.688,12.662l-18.712-0.003c-3.289,0-5.965-2.059-5.965-4.589v-11.164
				c0-1.177,0.853-2.155,2.027-2.328c7.107-1.045,12.222-4.338,14.894-9.385h27.169c5.941,0,10.702-1.828,14.151-5.434
				c5.77-6.032,5.637-14.876,5.606-15.789c-0.019-10.334-6.185-12.414-12.216-13.084c-2.906-0.323-6.841-5.122-9.269-9.448
				c-0.145-0.256-0.302-0.507-0.472-0.741c-4.653-6.46-16.017-17.199-39.503-16.636c-0.613,0.019-1.225-0.218-1.677-0.66
				c-0.459-0.448-0.712-1.049-0.712-1.692V54.734c0-2.53,2.676-4.589,5.965-4.589h18.596l0.116-0.003
				c0.186-0.011,19.638-0.75,33.647,12.625c9.604,9.17,14.475,22.821,14.475,40.575C141.716,121.072,136.859,134.71,127.281,143.88z
				" class="color000 svgShape" fill="#ffffff"></path><circle cx="97.689" cy="94.746" r="2.661" class="color000 svgShape" fill="#ffffff"></circle></g></switch></svg></svg></g></svg>